<svg width="36" height="34" viewBox="0 0 36 34" fill="none" xmlns="http://www.w3.org/2000/svg">
<path d="M34.56 0.135742H1.44C0.6435 0.135742 0 0.723623 0 1.45128V31.7086C0 32.4363 0.6435 33.0242 1.44 33.0242H34.56C35.3565 33.0242 36 32.4363 36 31.7086V1.45128C36 0.723623 35.3565 0.135742 34.56 0.135742ZM30.402 9.73505H27.5265C25.272 9.73505 24.8355 10.7135 24.8355 12.1524V15.322H30.2175L29.5155 20.284H24.8355V33.0242H19.224V20.2881H14.5305V15.322H19.224V11.6631C19.224 7.41642 22.0635 5.1019 26.2125 5.1019C28.2015 5.1019 29.907 5.23756 30.4065 5.29923V9.73505H30.402Z" fill="white"/>
</svg>
