<svg width="34" height="34" viewBox="0 0 34 34" fill="none" xmlns="http://www.w3.org/2000/svg">
<path d="M33.8905 9.84292C33.8715 8.462 33.6038 7.09482 33.0994 5.80252C32.662 4.71247 31.994 3.72251 31.138 2.89589C30.2821 2.06927 29.2569 1.42417 28.1282 1.0018C26.8072 0.52293 25.4116 0.263994 24.0009 0.236023C22.1846 0.157622 21.6087 0.135742 16.9981 0.135742C12.3875 0.135742 11.7965 0.135742 9.99345 0.236023C8.58337 0.2642 7.18846 0.523132 5.86806 1.0018C4.73911 1.42387 3.71383 2.06887 2.85781 2.89553C2.00179 3.72218 1.33389 4.7123 0.896823 5.80252C0.399947 7.07723 0.132396 8.4246 0.105731 9.7864C0.0245446 11.5422 0 12.0983 0 16.5508C0 21.0033 -1.40671e-08 21.5721 0.105731 23.3152C0.134052 24.679 0.400266 26.0246 0.896823 27.3027C1.33462 28.3926 2.00302 29.3823 2.85933 30.2086C3.71564 31.0349 4.74101 31.6796 5.86995 32.1016C7.18674 32.5997 8.58189 32.8772 9.99534 32.9221C11.8135 33.0005 12.3894 33.0242 17 33.0242C21.6106 33.0242 22.2016 33.0242 24.0047 32.9221C25.4153 32.8952 26.811 32.6369 28.1319 32.1581C29.2604 31.7353 30.2853 31.09 31.1412 30.2634C31.9971 29.4369 32.6653 28.4472 33.1032 27.3574C33.5997 26.0811 33.8659 24.7355 33.8943 23.3699C33.9755 21.6159 34 21.0598 34 16.6055C33.9962 12.153 33.9962 11.5878 33.8905 9.84292ZM16.9868 24.9707C12.1647 24.9707 8.25833 21.1983 8.25833 16.5417C8.25833 11.885 12.1647 8.11262 16.9868 8.11262C19.3017 8.11262 21.5218 9.00068 23.1587 10.5814C24.7956 12.1622 25.7152 14.3061 25.7152 16.5417C25.7152 18.7772 24.7956 20.9212 23.1587 22.5019C21.5218 24.0827 19.3017 24.9707 16.9868 24.9707ZM26.0626 9.76634C25.7953 9.76658 25.5305 9.7159 25.2835 9.61721C25.0364 9.51852 24.8119 9.37375 24.6229 9.19119C24.4339 9.00863 24.2839 8.79186 24.1817 8.55329C24.0795 8.31471 24.0271 8.05902 24.0273 7.80084C24.0273 7.54284 24.0799 7.28738 24.1822 7.04902C24.2844 6.81067 24.4343 6.59409 24.6232 6.41166C24.8121 6.22923 25.0364 6.08452 25.2832 5.98579C25.53 5.88706 25.7945 5.83625 26.0617 5.83625C26.3289 5.83625 26.5934 5.88706 26.8402 5.98579C27.087 6.08452 27.3113 6.22923 27.5002 6.41166C27.6891 6.59409 27.839 6.81067 27.9412 7.04902C28.0435 7.28738 28.0961 7.54284 28.0961 7.80084C28.0961 8.88752 27.186 9.76634 26.0626 9.76634Z" fill="white"/>
</svg>
