<svg width="38" height="35" viewBox="0 0 38 35" fill="none" xmlns="http://www.w3.org/2000/svg">
<path d="M35.0769 0.196289H2.92308C2.14783 0.196289 1.40433 0.47806 0.856149 0.979615C0.307966 1.48117 0 2.16143 0 2.87073V32.2896C0 32.9989 0.307966 33.6792 0.856149 34.1807C1.40433 34.6823 2.14783 34.9641 2.92308 34.9641H35.0769C35.8522 34.9641 36.5957 34.6823 37.1438 34.1807C37.692 33.6792 38 32.9989 38 32.2896V2.87073C38 2.16143 37.692 1.48117 37.1438 0.979615C36.5957 0.47806 35.8522 0.196289 35.0769 0.196289ZM13.1538 25.6035C13.1538 25.9582 12.9999 26.2983 12.7258 26.5491C12.4517 26.7998 12.0799 26.9407 11.6923 26.9407C11.3047 26.9407 10.9329 26.7998 10.6588 26.5491C10.3848 26.2983 10.2308 25.9582 10.2308 25.6035V14.9057C10.2308 14.5511 10.3848 14.2109 10.6588 13.9602C10.9329 13.7094 11.3047 13.5685 11.6923 13.5685C12.0799 13.5685 12.4517 13.7094 12.7258 13.9602C12.9999 14.2109 13.1538 14.5511 13.1538 14.9057V25.6035ZM11.6923 12.2313C11.2587 12.2313 10.8349 12.1136 10.4743 11.8932C10.1138 11.6728 9.83281 11.3596 9.66688 10.9931C9.50095 10.6265 9.45753 10.2232 9.54212 9.83413C9.62671 9.44504 9.83551 9.08764 10.1421 8.80711C10.4487 8.52659 10.8393 8.33556 11.2646 8.25816C11.6899 8.18077 12.1307 8.22049 12.5313 8.3723C12.9319 8.52412 13.2743 8.78121 13.5151 9.11107C13.756 9.44093 13.8846 9.82874 13.8846 10.2255C13.8846 10.7574 13.6536 11.2676 13.2425 11.6438C12.8314 12.02 12.2737 12.2313 11.6923 12.2313ZM29.2308 25.6035C29.2308 25.9582 29.0768 26.2983 28.8027 26.5491C28.5286 26.7998 28.1569 26.9407 27.7692 26.9407C27.3816 26.9407 27.0099 26.7998 26.7358 26.5491C26.4617 26.2983 26.3077 25.9582 26.3077 25.6035V19.586C26.3077 18.6994 25.9227 17.8491 25.2375 17.2221C24.5523 16.5952 23.6229 16.243 22.6538 16.243C21.6848 16.243 20.7554 16.5952 20.0702 17.2221C19.385 17.8491 19 18.6994 19 19.586V25.6035C19 25.9582 18.846 26.2983 18.5719 26.5491C18.2978 26.7998 17.9261 26.9407 17.5385 26.9407C17.1508 26.9407 16.7791 26.7998 16.505 26.5491C16.2309 26.2983 16.0769 25.9582 16.0769 25.6035V14.9057C16.0787 14.5782 16.2119 14.2626 16.4511 14.019C16.6903 13.7753 17.019 13.6204 17.3747 13.5837C17.7305 13.547 18.0886 13.6311 18.3811 13.8199C18.6736 14.0087 18.8802 14.2892 18.9616 14.6082C19.9503 13.9945 21.1031 13.6389 22.296 13.5794C23.489 13.5199 24.6771 13.7589 25.7329 14.2707C26.7886 14.7824 27.672 15.5476 28.2883 16.4841C28.9046 17.4205 29.2304 18.4929 29.2308 19.586V25.6035Z" fill="white"/>
</svg>
