<svg width="393" height="28" viewBox="0 0 393 28" fill="none" xmlns="http://www.w3.org/2000/svg">
<g filter="url(#filter0_i_1037_762)">
<path d="M0.3125 3.78125H11.4844C13.5469 3.77083 15.3229 3.95312 16.8125 4.32812C18.3125 4.69271 19.5469 5.21875 20.5156 5.90625C21.4844 6.59375 22.1979 7.42188 22.6562 8.39062C23.125 9.34896 23.3594 10.4167 23.3594 11.5938C23.3594 12.625 23.1406 13.6146 22.7031 14.5625C22.276 15.5 21.6094 16.3281 20.7031 17.0469C19.8073 17.7656 18.6615 18.3385 17.2656 18.7656C15.8802 19.1927 14.2292 19.4062 12.3125 19.4062H9.34375V27H0.3125V3.78125ZM9.34375 16C10.0625 15.9896 10.7031 15.8802 11.2656 15.6719C11.8281 15.4531 12.3021 15.1562 12.6875 14.7812C13.0729 14.3958 13.3646 13.9375 13.5625 13.4062C13.7708 12.8646 13.875 12.2604 13.875 11.5938C13.875 10.9375 13.7708 10.3438 13.5625 9.8125C13.3542 9.28125 13.0521 8.82812 12.6562 8.45312C12.2708 8.06771 11.7969 7.76562 11.2344 7.54688C10.6823 7.32812 10.0521 7.20833 9.34375 7.1875V16ZM26.1562 11.5H34.6406V20.9688C34.6406 21.3854 34.6771 21.7344 34.75 22.0156C34.8229 22.2969 34.9323 22.526 35.0781 22.7031C35.2344 22.8698 35.4219 22.9948 35.6406 23.0781C35.8594 23.151 36.1198 23.1875 36.4219 23.1875C36.7969 23.1875 37.125 23.1302 37.4062 23.0156C37.6875 22.8906 37.974 22.6771 38.2656 22.375V11.5H46.75V26.9844H39.2656L38.5156 24.7344C37.5677 25.6615 36.5417 26.3229 35.4375 26.7188C34.3333 27.1042 33.2083 27.2969 32.0625 27.2969C30.1771 27.2969 28.7188 26.7917 27.6875 25.7812C26.6667 24.7604 26.1562 23.1927 26.1562 21.0781V11.5ZM51.125 11.5156H58.6094L59.3594 13.7656C59.9531 13.3281 60.5104 12.9531 61.0312 12.6406C61.5625 12.3177 62.0729 12.0521 62.5625 11.8438C63.0625 11.625 63.5417 11.4688 64 11.375C64.4688 11.2708 64.9323 11.2188 65.3906 11.2188C66.0573 11.2188 66.6562 11.3125 67.1875 11.5C67.7292 11.6875 68.1875 11.9531 68.5625 12.2969C68.9479 12.6406 69.2396 13.0521 69.4375 13.5312C69.6458 14 69.75 14.5208 69.75 15.0938C69.75 15.6667 69.625 16.1927 69.375 16.6719C69.1354 17.151 68.7812 17.5677 68.3125 17.9219C67.8438 18.2656 67.2656 18.5365 66.5781 18.7344C65.901 18.9219 65.125 19.0156 64.25 19.0156L61.5 15.3438C61.1979 15.3438 60.8698 15.4062 60.5156 15.5312C60.1615 15.6562 59.8594 15.8542 59.6094 16.125V27H51.125V11.5156ZM72.1875 11.5156H79.6719L80.4219 13.7656C81.0156 13.3281 81.5729 12.9531 82.0938 12.6406C82.625 12.3177 83.1354 12.0521 83.625 11.8438C84.125 11.625 84.6042 11.4688 85.0625 11.375C85.5312 11.2708 85.9948 11.2188 86.4531 11.2188C87.1198 11.2188 87.7188 11.3125 88.25 11.5C88.7917 11.6875 89.25 11.9531 89.625 12.2969C90.0104 12.6406 90.3021 13.0521 90.5 13.5312C90.7083 14 90.8125 14.5208 90.8125 15.0938C90.8125 15.6667 90.6875 16.1927 90.4375 16.6719C90.1979 17.151 89.8438 17.5677 89.375 17.9219C88.9062 18.2656 88.3281 18.5365 87.6406 18.7344C86.9635 18.9219 86.1875 19.0156 85.3125 19.0156L82.5625 15.3438C82.2604 15.3438 81.9323 15.4062 81.5781 15.5312C81.224 15.6562 80.9219 15.8542 80.6719 16.125V27H72.1875V11.5156ZM93.8438 14.0938H92.125V11.5156H93.8438V9.89062C93.8438 8.38021 94.0677 7.06771 94.5156 5.95312C94.9635 4.82812 95.5938 3.90104 96.4062 3.17188C97.2292 2.43229 98.2188 1.88021 99.375 1.51562C100.531 1.15104 101.823 0.96875 103.25 0.96875C104.281 0.96875 105.214 1.07812 106.047 1.29688C106.891 1.50521 107.609 1.79688 108.203 2.17188C108.797 2.54688 109.255 2.98958 109.578 3.5C109.911 4 110.078 4.54167 110.078 5.125C110.078 5.67708 109.974 6.16667 109.766 6.59375C109.557 7.02083 109.281 7.38542 108.938 7.6875C108.594 7.98958 108.198 8.21875 107.75 8.375C107.312 8.53125 106.859 8.60938 106.391 8.60938L102.328 3.07812V11.5156H106.859L105.25 14.0938H102.328V27H93.8438V14.0938ZM109.391 19.1719C109.391 18.276 109.531 17.4583 109.812 16.7188C110.094 15.9792 110.479 15.3177 110.969 14.7344C111.469 14.1406 112.057 13.625 112.734 13.1875C113.411 12.75 114.146 12.3854 114.938 12.0938C115.729 11.8021 116.557 11.5833 117.422 11.4375C118.286 11.2917 119.161 11.2188 120.047 11.2188C121.214 11.2188 122.271 11.3385 123.219 11.5781C124.177 11.8073 125.026 12.125 125.766 12.5312C126.516 12.9375 127.161 13.4115 127.703 13.9531C128.255 14.4948 128.708 15.0729 129.062 15.6875C129.427 16.2917 129.693 16.9167 129.859 17.5625C130.036 18.2083 130.125 18.8385 130.125 19.4531L118.312 20.875C118.542 22.0312 119 22.9271 119.688 23.5625C120.375 24.1979 121.339 24.5156 122.578 24.5156C123.255 24.5156 123.885 24.4323 124.469 24.2656C125.062 24.099 125.526 23.8958 125.859 23.6562L127.109 25.8438C126.724 26.0417 126.302 26.2292 125.844 26.4062C125.396 26.5833 124.896 26.7396 124.344 26.875C123.802 27 123.198 27.099 122.531 27.1719C121.875 27.2552 121.151 27.2969 120.359 27.2969C118.464 27.2969 116.828 27.0781 115.453 26.6406C114.078 26.1927 112.938 25.599 112.031 24.8594C111.135 24.1094 110.469 23.2448 110.031 22.2656C109.604 21.2865 109.391 20.2552 109.391 19.1719ZM122.547 17.8594C122.547 16.5052 122.375 15.5208 122.031 14.9062C121.698 14.2917 121.198 13.9844 120.531 13.9844C120.188 13.9844 119.87 14.0677 119.578 14.2344C119.286 14.401 119.036 14.6615 118.828 15.0156C118.62 15.3698 118.453 15.8281 118.328 16.3906C118.203 16.9427 118.135 17.6146 118.125 18.4062L122.547 17.8594ZM132.031 19.25C132.031 18.1979 132.25 17.1875 132.688 16.2188C133.135 15.25 133.807 14.3958 134.703 13.6562C135.599 12.9167 136.729 12.3281 138.094 11.8906C139.469 11.4427 141.083 11.2188 142.938 11.2188C144.271 11.2188 145.411 11.349 146.359 11.6094C147.307 11.8594 148.083 12.1927 148.688 12.6094C149.292 13.026 149.734 13.5 150.016 14.0312C150.297 14.5625 150.438 15.1042 150.438 15.6562C150.438 16.0833 150.339 16.4896 150.141 16.875C149.943 17.2604 149.677 17.6042 149.344 17.9062C149.01 18.1979 148.62 18.4323 148.172 18.6094C147.724 18.7865 147.25 18.875 146.75 18.875L142.781 13.4531C142.49 13.7135 142.219 14.0208 141.969 14.375C141.729 14.7292 141.516 15.1354 141.328 15.5938C141.151 16.0417 141.01 16.5469 140.906 17.1094C140.812 17.6615 140.766 18.2708 140.766 18.9375C140.766 19.8646 140.88 20.6771 141.109 21.375C141.339 22.0729 141.651 22.6562 142.047 23.125C142.443 23.5833 142.911 23.9323 143.453 24.1719C144.005 24.401 144.604 24.5156 145.25 24.5156C145.562 24.5156 145.875 24.4948 146.188 24.4531C146.51 24.401 146.812 24.3385 147.094 24.2656C147.385 24.1823 147.651 24.0885 147.891 23.9844C148.13 23.8802 148.333 23.7708 148.5 23.6562L149.75 25.8438C149.365 26.0417 148.943 26.2292 148.484 26.4062C148.036 26.5833 147.536 26.7396 146.984 26.875C146.443 27 145.844 27.099 145.188 27.1719C144.531 27.2552 143.812 27.2969 143.031 27.2969C141.156 27.2969 139.526 27.0781 138.141 26.6406C136.766 26.1927 135.625 25.599 134.719 24.8594C133.812 24.1198 133.135 23.2656 132.688 22.2969C132.25 21.3281 132.031 20.3125 132.031 19.25ZM154.297 14.0938H152.547V11.5156H154.297V6.35938H162.781V11.5156H166.859L165.266 14.0938H162.781V21.1094C162.781 22.1719 163.016 22.9896 163.484 23.5625C163.964 24.1354 164.646 24.4219 165.531 24.4219L164.562 26.5625C164.021 26.7917 163.443 26.9688 162.828 27.0938C162.224 27.2292 161.521 27.2969 160.719 27.2969C159.594 27.2969 158.625 27.1562 157.812 26.875C157 26.5833 156.333 26.1719 155.812 25.6406C155.292 25.1094 154.906 24.4583 154.656 23.6875C154.417 22.9167 154.297 22.0469 154.297 21.0781V14.0938ZM179.875 3.78125H191.047C193.109 3.77083 194.885 3.95312 196.375 4.32812C197.875 4.69271 199.109 5.21875 200.078 5.90625C201.047 6.59375 201.76 7.42188 202.219 8.39062C202.688 9.34896 202.922 10.4167 202.922 11.5938C202.922 12.625 202.703 13.6146 202.266 14.5625C201.839 15.5 201.172 16.3281 200.266 17.0469C199.37 17.7656 198.224 18.3385 196.828 18.7656C195.443 19.1927 193.792 19.4062 191.875 19.4062H188.906V27H179.875V3.78125ZM188.906 16C189.625 15.9896 190.266 15.8802 190.828 15.6719C191.391 15.4531 191.865 15.1562 192.25 14.7812C192.635 14.3958 192.927 13.9375 193.125 13.4062C193.333 12.8646 193.438 12.2604 193.438 11.5938C193.438 10.9375 193.333 10.3438 193.125 9.8125C192.917 9.28125 192.615 8.82812 192.219 8.45312C191.833 8.06771 191.359 7.76562 190.797 7.54688C190.245 7.32812 189.615 7.20833 188.906 7.1875V16ZM204.859 22.125C204.859 21.375 205.026 20.6771 205.359 20.0312C205.693 19.3854 206.172 18.8229 206.797 18.3438C207.422 17.8646 208.177 17.4896 209.062 17.2188C209.948 16.9375 210.938 16.7969 212.031 16.7969C213.125 16.7969 214.146 16.9271 215.094 17.1875C216.052 17.4375 216.854 17.7604 217.5 18.1562V18.0312C217.5 17.3021 217.417 16.6823 217.25 16.1719C217.094 15.6615 216.849 15.2448 216.516 14.9219C216.182 14.599 215.755 14.3646 215.234 14.2188C214.724 14.0729 214.12 14 213.422 14C212.786 14 212.13 14.0573 211.453 14.1719C210.776 14.276 210.151 14.4323 209.578 14.6406L208.438 12.5312C209.573 12.0625 210.745 11.7292 211.953 11.5312C213.172 11.3229 214.427 11.2188 215.719 11.2188C217.375 11.2188 218.839 11.3802 220.109 11.7031C221.391 12.0156 222.464 12.4896 223.328 13.125C224.203 13.75 224.865 14.5417 225.312 15.5C225.76 16.4479 225.984 17.5625 225.984 18.8438V27H218.062L217.531 25.5C217.219 25.7396 216.849 25.9688 216.422 26.1875C215.995 26.4062 215.526 26.599 215.016 26.7656C214.505 26.9323 213.964 27.0625 213.391 27.1562C212.818 27.25 212.219 27.2969 211.594 27.2969C210.573 27.2969 209.646 27.1667 208.812 26.9062C207.99 26.6354 207.286 26.2708 206.703 25.8125C206.12 25.3542 205.667 24.8125 205.344 24.1875C205.021 23.5521 204.859 22.8646 204.859 22.125ZM213.609 21.7969C213.609 22.3594 213.792 22.8177 214.156 23.1719C214.521 23.5156 215.01 23.6875 215.625 23.6875C215.958 23.6875 216.286 23.6354 216.609 23.5312C216.932 23.4167 217.229 23.25 217.5 23.0312V20.3906C216.979 20.0781 216.406 19.9219 215.781 19.9219C215.073 19.9219 214.531 20.099 214.156 20.4531C213.792 20.7969 213.609 21.2448 213.609 21.7969ZM228.078 11.5156H236.953L240.422 21.6094L242.688 15.2969L241.25 11.5156H250.125L253.438 21.1562L256.719 11.5156H260.156L254.688 27H251.438V26.9844H247.172L244.406 19.7812L241.719 27H238.469V26.9844H234L228.078 11.5156ZM263.688 21.8438C264.792 22.4062 265.948 22.8281 267.156 23.1094C268.365 23.3906 269.49 23.5312 270.531 23.5312C271.729 23.5312 272.604 23.3594 273.156 23.0156C273.719 22.6719 274 22.2031 274 21.6094C274 21.4219 273.964 21.2292 273.891 21.0312C273.828 20.8333 273.698 20.6406 273.5 20.4531C273.312 20.2552 273.047 20.0625 272.703 19.875C272.37 19.6771 271.932 19.4844 271.391 19.2969L268.594 18.3438C266.594 17.6562 265.089 16.7292 264.078 15.5625C263.068 14.3854 262.562 12.9896 262.562 11.375C262.562 10.3333 262.781 9.33333 263.219 8.375C263.656 7.40625 264.318 6.55729 265.203 5.82812C266.089 5.08854 267.203 4.5 268.547 4.0625C269.901 3.625 271.484 3.40625 273.297 3.40625C274.193 3.40625 275.052 3.45833 275.875 3.5625C276.698 3.66667 277.469 3.80208 278.188 3.96875C278.917 4.13542 279.583 4.32812 280.188 4.54688C280.792 4.75521 281.323 4.96354 281.781 5.17188L280.094 8.21875C279.76 8.01042 279.406 7.82812 279.031 7.67188C278.667 7.51562 278.297 7.38542 277.922 7.28125C277.557 7.17708 277.198 7.09896 276.844 7.04688C276.49 6.99479 276.167 6.96875 275.875 6.96875C275.375 6.96875 274.938 7.03646 274.562 7.17188C274.188 7.29688 273.87 7.46875 273.609 7.6875C273.359 7.89583 273.167 8.13542 273.031 8.40625C272.906 8.66667 272.844 8.92708 272.844 9.1875C272.844 9.41667 272.896 9.64062 273 9.85938C273.115 10.0677 273.302 10.276 273.562 10.4844C273.833 10.6823 274.182 10.8854 274.609 11.0938C275.047 11.2917 275.589 11.5 276.234 11.7188L278.109 12.3438C280.141 13.0208 281.693 13.9531 282.766 15.1406C283.839 16.3281 284.375 17.7656 284.375 19.4531C284.375 20.599 284.115 21.6562 283.594 22.625C283.083 23.5938 282.318 24.4323 281.297 25.1406C280.276 25.8385 279.005 26.3854 277.484 26.7812C275.974 27.1667 274.219 27.3594 272.219 27.3594C271.26 27.3594 270.333 27.3073 269.438 27.2031C268.552 27.1094 267.682 26.9635 266.828 26.7656C265.984 26.5677 265.151 26.3177 264.328 26.0156C263.505 25.7135 262.682 25.3594 261.859 24.9531L263.688 21.8438ZM292.172 8.9375C291.401 8.9375 290.734 8.85417 290.172 8.6875C289.62 8.52083 289.167 8.29167 288.812 8C288.458 7.69792 288.198 7.35417 288.031 6.96875C287.865 6.57292 287.781 6.14583 287.781 5.6875C287.781 5.23958 287.865 4.81771 288.031 4.42188C288.198 4.02604 288.458 3.68229 288.812 3.39062C289.167 3.08854 289.62 2.85417 290.172 2.6875C290.734 2.52083 291.401 2.4375 292.172 2.4375C292.953 2.4375 293.62 2.52083 294.172 2.6875C294.724 2.85417 295.177 3.08854 295.531 3.39062C295.896 3.68229 296.161 4.02604 296.328 4.42188C296.495 4.81771 296.578 5.23958 296.578 5.6875C296.578 6.14583 296.495 6.57292 296.328 6.96875C296.161 7.35417 295.896 7.69792 295.531 8C295.177 8.29167 294.724 8.52083 294.172 8.6875C293.62 8.85417 292.953 8.9375 292.172 8.9375ZM287.938 11.5156H296.422V27H287.938V11.5156ZM301.703 14.0938H299.953V11.5156H301.703V6.35938H310.188V11.5156H314.266L312.672 14.0938H310.188V21.1094C310.188 22.1719 310.422 22.9896 310.891 23.5625C311.37 24.1354 312.052 24.4219 312.938 24.4219L311.969 26.5625C311.427 26.7917 310.849 26.9688 310.234 27.0938C309.63 27.2292 308.927 27.2969 308.125 27.2969C307 27.2969 306.031 27.1562 305.219 26.875C304.406 26.5833 303.74 26.1719 303.219 25.6406C302.698 25.1094 302.312 24.4583 302.062 23.6875C301.823 22.9167 301.703 22.0469 301.703 21.0781V14.0938ZM317.672 14.0938H315.922V11.5156H317.672V6.35938H326.156V11.5156H330.234L328.641 14.0938H326.156V21.1094C326.156 22.1719 326.391 22.9896 326.859 23.5625C327.339 24.1354 328.021 24.4219 328.906 24.4219L327.938 26.5625C327.396 26.7917 326.818 26.9688 326.203 27.0938C325.599 27.2292 324.896 27.2969 324.094 27.2969C322.969 27.2969 322 27.1562 321.188 26.875C320.375 26.5833 319.708 26.1719 319.188 25.6406C318.667 25.1094 318.281 24.4583 318.031 23.6875C317.792 22.9167 317.672 22.0469 317.672 21.0781V14.0938ZM331.734 19.1719C331.734 18.276 331.875 17.4583 332.156 16.7188C332.438 15.9792 332.823 15.3177 333.312 14.7344C333.812 14.1406 334.401 13.625 335.078 13.1875C335.755 12.75 336.49 12.3854 337.281 12.0938C338.073 11.8021 338.901 11.5833 339.766 11.4375C340.63 11.2917 341.505 11.2188 342.391 11.2188C343.557 11.2188 344.615 11.3385 345.562 11.5781C346.521 11.8073 347.37 12.125 348.109 12.5312C348.859 12.9375 349.505 13.4115 350.047 13.9531C350.599 14.4948 351.052 15.0729 351.406 15.6875C351.771 16.2917 352.036 16.9167 352.203 17.5625C352.38 18.2083 352.469 18.8385 352.469 19.4531L340.656 20.875C340.885 22.0312 341.344 22.9271 342.031 23.5625C342.719 24.1979 343.682 24.5156 344.922 24.5156C345.599 24.5156 346.229 24.4323 346.812 24.2656C347.406 24.099 347.87 23.8958 348.203 23.6562L349.453 25.8438C349.068 26.0417 348.646 26.2292 348.188 26.4062C347.74 26.5833 347.24 26.7396 346.688 26.875C346.146 27 345.542 27.099 344.875 27.1719C344.219 27.2552 343.495 27.2969 342.703 27.2969C340.807 27.2969 339.172 27.0781 337.797 26.6406C336.422 26.1927 335.281 25.599 334.375 24.8594C333.479 24.1094 332.812 23.2448 332.375 22.2656C331.948 21.2865 331.734 20.2552 331.734 19.1719ZM344.891 17.8594C344.891 16.5052 344.719 15.5208 344.375 14.9062C344.042 14.2917 343.542 13.9844 342.875 13.9844C342.531 13.9844 342.214 14.0677 341.922 14.2344C341.63 14.401 341.38 14.6615 341.172 15.0156C340.964 15.3698 340.797 15.8281 340.672 16.3906C340.547 16.9427 340.479 17.6146 340.469 18.4062L344.891 17.8594ZM355.406 11.5156H362.891L363.641 13.7656C364.234 13.3281 364.792 12.9531 365.312 12.6406C365.844 12.3177 366.354 12.0521 366.844 11.8438C367.344 11.625 367.823 11.4688 368.281 11.375C368.75 11.2708 369.214 11.2188 369.672 11.2188C370.339 11.2188 370.938 11.3125 371.469 11.5C372.01 11.6875 372.469 11.9531 372.844 12.2969C373.229 12.6406 373.521 13.0521 373.719 13.5312C373.927 14 374.031 14.5208 374.031 15.0938C374.031 15.6667 373.906 16.1927 373.656 16.6719C373.417 17.151 373.062 17.5677 372.594 17.9219C372.125 18.2656 371.547 18.5365 370.859 18.7344C370.182 18.9219 369.406 19.0156 368.531 19.0156L365.781 15.3438C365.479 15.3438 365.151 15.4062 364.797 15.5312C364.443 15.6562 364.141 15.8542 363.891 16.125V27H355.406V11.5156ZM377.078 23C377.505 23.2292 377.917 23.4375 378.312 23.625C378.708 23.8125 379.104 23.974 379.5 24.1094C379.896 24.2344 380.292 24.3333 380.688 24.4062C381.094 24.4792 381.516 24.5156 381.953 24.5156C382.641 24.5156 383.135 24.4323 383.438 24.2656C383.74 24.099 383.891 23.8802 383.891 23.6094C383.891 23.4427 383.839 23.3021 383.734 23.1875C383.641 23.0729 383.505 22.974 383.328 22.8906C383.151 22.7969 382.943 22.7135 382.703 22.6406C382.464 22.5573 382.198 22.474 381.906 22.3906L381.016 22.125C380.141 21.8646 379.385 21.5625 378.75 21.2188C378.115 20.8646 377.594 20.4688 377.188 20.0312C376.781 19.5938 376.479 19.125 376.281 18.625C376.083 18.1146 375.984 17.5729 375.984 17C375.984 16.2604 376.151 15.5469 376.484 14.8594C376.818 14.1615 377.333 13.5417 378.031 13C378.729 12.4583 379.62 12.026 380.703 11.7031C381.797 11.3802 383.094 11.2188 384.594 11.2188C385.156 11.2188 385.74 11.2552 386.344 11.3281C386.958 11.3906 387.552 11.474 388.125 11.5781C388.698 11.6823 389.234 11.8021 389.734 11.9375C390.234 12.0625 390.656 12.1927 391 12.3281L389.625 14.8438C389.396 14.7188 389.125 14.6094 388.812 14.5156C388.51 14.4115 388.198 14.3229 387.875 14.25C387.552 14.1667 387.24 14.1042 386.938 14.0625C386.646 14.0208 386.396 14 386.188 14C385.583 14 385.151 14.0833 384.891 14.25C384.63 14.4167 384.5 14.6198 384.5 14.8594C384.5 14.9531 384.526 15.0521 384.578 15.1562C384.63 15.2604 384.734 15.3698 384.891 15.4844C385.047 15.599 385.266 15.7188 385.547 15.8438C385.828 15.9688 386.198 16.099 386.656 16.2344L387.531 16.5C388.5 16.7917 389.302 17.1198 389.938 17.4844C390.583 17.849 391.099 18.2448 391.484 18.6719C391.88 19.0885 392.156 19.5312 392.312 20C392.479 20.4688 392.562 20.9479 392.562 21.4375C392.562 22.1875 392.38 22.9167 392.016 23.625C391.651 24.3333 391.068 24.9583 390.266 25.5C389.474 26.0417 388.448 26.4792 387.188 26.8125C385.927 27.1354 384.401 27.2969 382.609 27.2969C381.839 27.2969 381.13 27.2656 380.484 27.2031C379.839 27.1406 379.229 27.0469 378.656 26.9219C378.083 26.7969 377.531 26.6458 377 26.4688C376.479 26.2812 375.964 26.0729 375.453 25.8438L377.078 23Z" fill="white"/>
</g>
<defs>
<filter id="filter0_i_1037_762" x="0.3125" y="0.96875" width="392.25" height="30.3906" filterUnits="userSpaceOnUse" color-interpolation-filters="sRGB">
<feFlood flood-opacity="0" result="BackgroundImageFix"/>
<feBlend mode="normal" in="SourceGraphic" in2="BackgroundImageFix" result="shape"/>
<feColorMatrix in="SourceAlpha" type="matrix" values="0 0 0 0 0 0 0 0 0 0 0 0 0 0 0 0 0 0 127 0" result="hardAlpha"/>
<feOffset dy="4"/>
<feGaussianBlur stdDeviation="2"/>
<feComposite in2="hardAlpha" operator="arithmetic" k2="-1" k3="1"/>
<feColorMatrix type="matrix" values="0 0 0 0 0 0 0 0 0 0 0 0 0 0 0 0 0 0 0.1 0"/>
<feBlend mode="normal" in2="shape" result="effect1_innerShadow_1037_762"/>
</filter>
</defs>
</svg>
