<svg width="36" height="34" viewBox="0 0 36 34" fill="none" xmlns="http://www.w3.org/2000/svg">
<path d="M34.56 0.135742H1.44C0.6435 0.135742 0 0.723623 0 1.45128V31.7086C0 32.4363 0.6435 33.0242 1.44 33.0242H34.56C35.3565 33.0242 36 32.4363 36 31.7086V1.45128C36 0.723623 35.3565 0.135742 34.56 0.135742ZM27.6885 12.0455C27.702 12.2387 27.702 12.4401 27.702 12.6375C27.702 18.6725 22.671 25.6243 13.4775 25.6243C10.6425 25.6243 8.0145 24.872 5.8005 23.577C6.2055 23.6181 6.5925 23.6345 7.0065 23.6345C9.3465 23.6345 11.4975 22.911 13.212 21.6859C11.016 21.6448 9.171 20.3292 8.541 18.5204C9.3105 18.6232 10.0035 18.6232 10.7955 18.4382C9.66477 18.2283 8.64844 17.6673 7.91917 16.8504C7.18991 16.0335 6.79269 15.0112 6.795 13.9571V13.8995C7.4565 14.2408 8.235 14.4504 9.0495 14.4792C8.36479 14.0623 7.80326 13.4975 7.4147 12.8349C7.02614 12.1723 6.82256 11.4323 6.822 10.6806C6.822 9.82961 7.065 9.05262 7.5015 8.3784C8.75656 9.78988 10.3227 10.9443 12.0981 11.7666C13.8735 12.5889 15.8184 13.0607 17.8065 13.1513C17.1 10.0475 19.638 7.53564 22.689 7.53564C24.129 7.53564 25.425 8.08652 26.3385 8.97451C27.468 8.78129 28.548 8.39485 29.511 7.87686C29.1375 8.9334 28.3545 9.8255 27.315 10.3887C28.323 10.29 29.295 10.0352 30.195 9.6775C29.5155 10.5902 28.665 11.4 27.6885 12.0455Z" fill="white"/>
</svg>
